# xmcd
#
# Track frame offsets:
#	150
#	16912
#	39547
#	66052
#	90810
#	112227
#	134315
#	152867
#	175800
#	191120
#	217677
#	236522
#	263057
#	280450
#
# Disc length: 3970 seconds
# Revision: 3
# Processed by: cddbd v1.5.2PL0 Copyright (c) Steve Scherf et al.
# Submitted via: dBpowerAMP V12.0
#
DISCID=bd0f800e
DTITLE=Stacy Mitchhart - Blues Transfusion
DYEAR=1993
DGENRE=Blues
TTITLE0=It's The Groove In The Blues
TTITLE1=Give Up What You've Got
TTITLE2=It's A Three Dog Night
TTITLE3=I've Just Got To Let You Go
TTITLE4=You Ain't Gotta Be Poor (To Have The Blues)
TTITLE5=I'm Your Blues Doctor
TTITLE6=Conversation With The Doctor
TTITLE7=The Park Avenue Stomp
TTITLE8=I Got Pain
TTITLE9=I'll Be There For You
TTITLE10=Final Welcome
TTITLE11=Girl I've Got To Leave You
TTITLE12=They All Want Something
TTITLE13=Steatofygous (Big Butt) Woman
EXTD=
EXTT0=
EXTT1=
EXTT2=
EXTT3=
EXTT4=
EXTT5=
EXTT6=
EXTT7=
EXTT8=
EXTT9=
EXTT10=
EXTT11=
EXTT12=
EXTT13=
PLAYORDER=
